 <svg version="1.0" xmlns="http://www.w3.org/2000/svg" width="700.000000pt" height="826.000000pt" viewBox="0 0 700.000000 826.000000" preserveAspectRatio="xMidYMid meet">
<metadata>
Created by potrace 1.12, written by Peter Selinger 2001-2015
</metadata>
<g transform="translate(0.000000,826.000000) scale(0.100000,-0.100000)" fill="#000000" stroke="none">
<path d="M3425 7630 c-3 -5 -15 -10 -25 -10 -10 0 -49 -16 -87 -35 -37 -19
-74 -35 -80 -35 -7 0 -13 -5 -13 -11 0 -5 -4 -8 -9 -4 -6 3 -13 0 -18 -7 -4
-7 -30 -24 -58 -38 -27 -14 -54 -30 -60 -36 -5 -6 -30 -19 -55 -29 -25 -10
-49 -24 -55 -30 -5 -6 -26 -17 -45 -25 -19 -8 -39 -20 -43 -27 -4 -7 -13 -13
-19 -13 -6 0 -35 -18 -63 -39 -29 -22 -56 -37 -59 -34 -3 4 -12 -1 -19 -11
-12 -17 -41 -36 -87 -57 -73 -33 -89 -41 -135 -69 -27 -16 -61 -35 -75 -42
-14 -7 -29 -18 -35 -24 -5 -6 -32 -20 -58 -29 -26 -10 -51 -23 -55 -29 -4 -6
-29 -22 -57 -36 -27 -14 -68 -36 -90 -50 -22 -14 -52 -31 -67 -38 -16 -6 -28
-16 -28 -22 0 -5 -6 -10 -13 -10 -7 0 -31 -13 -53 -30 -21 -16 -43 -30 -47
-30 -4 0 -41 -24 -81 -54 l-73 -54 -9 -583 c-5 -321 -9 -693 -9 -826 0 -132
-3 -245 -7 -249 -5 -4 -8 -20 -8 -35 0 -43 -17 -79 -38 -79 -10 0 -39 -13 -65
-30 -26 -16 -51 -30 -54 -30 -4 0 -14 -6 -22 -14 -9 -7 -43 -28 -76 -46 -33
-18 -67 -38 -75 -46 -8 -7 -35 -22 -60 -34 -25 -11 -67 -34 -95 -50 -27 -16
-69 -38 -92 -49 -24 -11 -43 -24 -43 -29 0 -4 -17 -14 -37 -21 -21 -8 -65 -31
-98 -52 -33 -22 -65 -39 -72 -39 -7 0 -16 -6 -20 -13 -4 -6 -30 -23 -58 -36
-27 -13 -66 -36 -85 -51 -19 -15 -54 -38 -77 -50 -24 -12 -43 -25 -43 -29 0
-4 -18 -14 -40 -21 -22 -7 -40 -17 -40 -22 0 -4 -6 -8 -13 -8 -7 0 -29 -11
-48 -25 -19 -14 -53 -31 -77 -37 -23 -6 -42 -14 -42 -19 0 -5 -13 -15 -30 -24
-16 -9 -30 -21 -30 -28 0 -6 -7 -25 -15 -41 -9 -16 -13 -36 -10 -44 3 -8 0
-21 -7 -30 -10 -12 -14 -212 -17 -924 l-3 -910 33 -35 c37 -38 119 -98 119
-87 0 4 8 0 18 -8 9 -9 44 -30 77 -48 33 -18 67 -38 75 -45 8 -6 51 -29 95
-51 44 -21 101 -53 127 -71 26 -18 51 -33 55 -33 5 0 30 -16 57 -35 27 -19 55
-35 62 -35 7 0 17 -6 21 -12 10 -17 19 -22 218 -126 17 -8 49 -28 73 -44 23
-16 42 -26 42 -23 0 4 13 -3 29 -14 15 -11 40 -25 55 -31 14 -5 26 -14 26 -20
0 -5 7 -10 15 -10 9 0 18 -7 21 -15 4 -8 12 -15 19 -15 7 0 23 -9 37 -20 14
-10 49 -29 79 -40 30 -12 59 -26 64 -33 6 -7 39 -27 75 -45 36 -18 80 -43 99
-54 71 -44 119 -32 319 79 31 18 76 41 100 52 23 11 42 24 42 29 0 5 18 15 40
22 22 7 40 17 40 21 0 5 15 16 33 24 43 21 80 42 157 91 36 23 82 48 103 55
20 7 37 17 37 21 0 5 19 17 43 28 23 11 67 34 97 51 30 17 69 39 85 47 17 9
48 29 71 46 22 17 72 47 110 66 38 19 73 41 77 48 4 6 14 12 21 12 7 0 30 12
51 26 21 14 56 33 79 41 22 9 44 21 47 26 4 5 11 7 17 3 6 -3 13 -2 17 4 10
17 73 12 87 -7 7 -10 42 -32 78 -50 64 -32 120 -63 130 -73 8 -8 62 -38 99
-56 19 -8 55 -31 79 -50 25 -19 51 -34 58 -34 8 0 14 -4 14 -10 0 -5 5 -10 11
-10 6 0 30 -13 53 -30 24 -16 46 -26 50 -23 3 4 6 2 6 -3 0 -6 23 -18 51 -28
28 -10 53 -25 56 -32 3 -8 11 -14 18 -14 7 0 29 -11 50 -25 20 -14 51 -29 69
-32 17 -4 39 -17 49 -30 10 -13 25 -23 32 -23 8 0 18 -6 22 -13 4 -7 24 -19
43 -27 19 -7 40 -18 45 -24 6 -6 26 -19 45 -28 39 -20 57 -31 115 -69 22 -14
72 -41 110 -60 39 -19 72 -37 75 -40 3 -4 24 -12 47 -19 35 -11 51 -11 85 0
24 7 45 15 48 19 3 3 21 14 40 24 19 10 58 31 85 47 28 16 68 39 90 50 86 46
122 67 176 103 31 20 59 37 62 37 4 0 31 16 61 35 30 19 58 35 61 35 3 0 28
16 56 36 28 20 72 42 98 50 25 7 62 25 81 39 18 14 40 25 47 25 7 0 13 5 13
10 0 6 11 15 24 20 14 5 48 25 75 45 28 19 53 34 55 33 2 -2 25 11 52 28 27
16 60 36 74 43 14 7 48 25 75 41 28 16 66 38 85 47 19 10 39 24 43 31 4 6 13
12 19 12 5 0 30 14 55 30 24 17 48 30 53 30 5 0 13 7 18 16 5 8 19 21 32 27
13 7 33 25 44 40 21 28 21 30 21 950 0 535 -4 930 -9 942 -5 11 -10 22 -10 25
-2 10 -44 60 -51 60 -4 0 -20 10 -37 21 -26 19 -72 45 -145 83 -13 6 -23 15
-23 19 0 5 -4 5 -10 2 -5 -3 -10 -2 -10 3 0 5 -18 15 -41 22 -23 8 -43 20 -46
27 -3 7 -10 13 -15 13 -5 0 -29 14 -52 30 -42 30 -78 52 -146 87 -19 9 -53 29
-75 44 -22 15 -56 34 -75 43 -19 9 -62 32 -95 51 -33 18 -75 41 -92 49 -18 9
-33 20 -33 24 0 4 -12 13 -27 20 -30 14 -61 31 -138 77 -27 16 -61 36 -75 43
-14 7 -47 26 -75 42 -27 16 -66 38 -85 47 -19 10 -37 21 -40 25 -3 3 -18 10
-33 13 -29 8 -53 39 -49 67 2 9 -2 19 -8 23 -7 4 -10 267 -10 831 l0 825 -37
45 c-33 40 -76 72 -100 75 -5 1 -27 14 -49 30 -23 15 -44 25 -48 22 -3 -4 -6
-1 -6 5 0 7 -15 19 -32 27 -53 26 -101 53 -107 62 -3 5 -17 14 -31 21 -14 6
-52 28 -85 47 -33 19 -75 42 -92 50 -18 9 -33 20 -33 25 0 6 -3 9 -7 9 -14 -3
-73 25 -73 34 0 4 -19 17 -42 28 -52 24 -86 43 -158 89 -30 19 -58 34 -62 32
-5 -1 -8 2 -8 8 0 6 -5 10 -11 10 -7 0 -28 10 -48 22 -20 13 -38 23 -41 23 -3
0 -25 14 -50 30 -25 16 -79 46 -120 67 -41 21 -82 45 -90 53 -9 8 -26 15 -37
15 -11 0 -46 20 -77 45 -32 25 -64 45 -72 45 -7 0 -17 8 -23 18 -5 9 -13 16
-18 16 -8 -1 -59 19 -95 37 -24 12 -55 11 -63 -1z m86 -396 c17 -20 113 -84
127 -84 6 0 15 -6 19 -13 4 -7 24 -19 43 -27 19 -7 40 -18 45 -24 6 -6 21 -17
35 -24 14 -7 48 -26 75 -42 28 -16 69 -39 93 -50 23 -12 42 -25 42 -30 0 -6 3
-9 8 -9 13 3 72 -25 72 -34 0 -4 19 -17 43 -28 23 -11 65 -33 92 -49 28 -16
73 -41 100 -55 111 -59 125 -67 125 -76 0 -5 5 -9 11 -9 7 0 35 -15 63 -33 28
-18 96 -55 151 -82 55 -28 102 -53 103 -58 2 -4 7 -5 12 -2 5 3 9 -68 10 -157
0 -90 4 -166 9 -171 8 -8 4 -857 -4 -865 -3 -3 -5 -20 -5 -37 0 -45 -21 -61
-59 -45 -16 6 -37 20 -47 31 -9 10 -23 19 -30 19 -8 0 -19 9 -26 20 -7 11 -18
20 -24 20 -6 0 -28 12 -49 26 -21 14 -56 33 -79 41 -22 9 -44 20 -47 25 -6 10
-60 39 -176 98 -46 22 -83 45 -83 50 0 6 -6 10 -13 10 -7 0 -29 12 -48 26 -19
14 -47 32 -64 40 -53 27 -98 53 -104 61 -3 5 -26 17 -51 28 -25 10 -50 23 -55
29 -6 6 -33 22 -60 36 -28 14 -71 40 -96 57 -26 18 -52 33 -58 33 -7 0 -23 7
-36 16 -16 10 -56 18 -108 21 -80 5 -85 4 -162 -33 -44 -21 -82 -38 -85 -38
-3 -1 -23 -12 -45 -26 -49 -30 -107 -62 -162 -89 -23 -12 -43 -25 -45 -29 -2
-4 -19 -15 -38 -25 -19 -9 -57 -31 -85 -47 -27 -16 -63 -36 -80 -44 -16 -8
-51 -30 -76 -50 -26 -19 -49 -32 -53 -29 -3 4 -6 1 -6 -5 0 -7 -6 -12 -12 -12
-7 0 -24 -9 -37 -19 -14 -10 -31 -17 -38 -14 -7 3 -31 -9 -53 -27 -22 -18 -64
-44 -93 -59 -71 -37 -101 -55 -108 -64 -3 -4 -21 -17 -40 -27 -132 -77 -129
-81 -129 161 0 114 -4 190 -10 194 -6 4 -10 157 -10 428 l0 421 27 23 c14 13
31 23 37 23 6 0 34 15 62 33 28 19 72 42 97 53 26 10 47 22 47 26 0 8 91 52
103 50 4 -1 7 3 7 8 0 6 5 10 11 10 6 0 29 13 52 28 23 16 56 36 72 44 67 34
100 54 107 64 4 6 25 16 48 24 22 7 40 17 40 22 0 5 11 13 24 18 14 5 48 25
76 45 28 19 72 44 99 55 27 10 68 32 92 48 24 17 47 28 51 26 5 -3 8 -1 8 4 0
6 17 19 38 29 91 48 102 55 102 64 0 5 6 9 13 9 6 0 30 14 51 30 31 23 50 30
87 30 30 0 51 -6 60 -16z m-40 -1686 c19 -6 36 -14 39 -18 3 -3 25 -14 49 -24
24 -9 55 -26 69 -37 14 -10 31 -19 38 -19 8 0 14 -4 14 -9 0 -5 19 -19 42 -31
23 -12 53 -30 66 -41 14 -10 29 -19 34 -19 6 0 33 -15 60 -32 28 -18 53 -33
57 -33 4 0 29 -15 57 -32 28 -18 54 -33 58 -33 4 0 27 -13 51 -30 24 -16 47
-30 51 -30 4 0 40 -22 80 -50 40 -27 76 -50 81 -50 4 0 32 -16 61 -35 28 -20
52 -33 52 -30 0 3 20 -8 45 -25 25 -17 45 -27 45 -23 0 4 4 4 8 -2 9 -12 51
-37 119 -69 28 -14 67 -39 87 -56 20 -18 36 -29 36 -24 0 4 9 -1 20 -11 20
-18 20 -31 20 -666 0 -457 -3 -650 -11 -655 -7 -4 -10 -46 -8 -122 l4 -117
-34 -33 c-18 -18 -38 -31 -44 -29 -7 2 -33 -11 -59 -30 -26 -18 -52 -33 -57
-33 -6 0 -15 -8 -20 -17 -6 -10 -11 -14 -11 -10 0 5 -17 -5 -39 -22 -37 -30
-129 -76 -143 -73 -5 1 -8 -2 -8 -7 0 -5 -8 -11 -17 -15 -10 -3 -45 -22 -78
-41 -33 -19 -84 -46 -112 -60 -29 -14 -53 -28 -53 -33 0 -4 -12 -13 -27 -20
-42 -19 -96 -50 -102 -59 -3 -4 -24 -17 -46 -28 -22 -11 -43 -24 -47 -30 -4
-5 -8 -6 -8 -2 0 4 -17 -4 -37 -18 -21 -14 -43 -25 -50 -25 -7 0 -13 -5 -13
-10 0 -6 -12 -15 -26 -21 -15 -5 -45 -24 -68 -42 -22 -18 -40 -31 -41 -29 0 6
-110 -47 -140 -67 -16 -12 -46 -21 -66 -21 -36 0 -145 47 -184 80 -11 9 -40
25 -65 35 -25 10 -50 23 -55 29 -12 13 -57 40 -102 61 -18 8 -33 20 -33 27 0
6 -3 9 -6 5 -4 -3 -26 7 -50 24 -24 16 -44 27 -44 24 0 -3 -23 11 -51 30 -27
20 -61 40 -75 45 -13 5 -24 14 -24 20 0 5 -6 10 -14 10 -7 0 -24 8 -37 19 -13
10 -49 29 -79 41 -30 13 -60 28 -65 34 -6 6 -33 22 -60 36 -28 13 -52 27 -55
30 -6 6 -35 23 -91 52 -21 11 -39 24 -39 28 0 4 -20 13 -45 19 -26 6 -49 19
-55 31 -6 11 -15 20 -20 20 -15 0 -84 50 -94 68 -17 30 -19 95 -18 732 0 629
2 727 13 745 4 6 9 26 13 45 10 55 72 113 181 171 22 12 63 34 90 50 28 16 66
37 85 46 19 10 38 23 42 29 4 6 29 19 55 29 26 10 52 24 56 32 4 7 14 13 21
13 7 0 25 9 38 20 29 22 100 64 141 82 15 7 27 16 27 20 0 4 55 34 123 67 67
34 142 74 167 91 25 16 50 30 57 30 7 0 16 6 20 13 9 13 47 36 108 65 22 11
49 29 59 41 22 24 39 26 87 9z m-1753 -1063 c2 -11 5 -27 8 -35 3 -8 6 -304 7
-657 2 -353 6 -645 10 -649 4 -4 7 -25 7 -46 0 -21 6 -53 14 -71 13 -33 83
-97 105 -97 6 0 19 -8 29 -18 10 -10 36 -25 58 -34 21 -9 64 -32 94 -52 30
-20 62 -36 71 -36 9 0 33 -11 53 -25 20 -14 40 -25 44 -25 4 0 27 -16 51 -35
24 -19 49 -35 56 -35 7 0 30 -13 51 -28 21 -15 59 -38 84 -51 25 -13 61 -36
80 -51 19 -15 60 -38 90 -51 30 -13 75 -37 100 -54 49 -33 106 -65 163 -91 20
-9 37 -20 37 -24 0 -4 18 -13 40 -20 22 -7 40 -18 40 -23 0 -6 3 -7 6 -4 9 9
64 -31 64 -46 -1 -26 -41 -55 -165 -118 -71 -37 -150 -78 -175 -92 -25 -15
-56 -32 -70 -39 -14 -7 -29 -18 -33 -25 -4 -7 -13 -13 -20 -13 -7 0 -34 -16
-61 -35 -27 -19 -55 -35 -62 -35 -7 0 -17 -6 -21 -13 -8 -12 -152 -87 -168
-87 -4 0 -38 -20 -75 -45 -37 -25 -71 -45 -74 -45 -4 0 -30 -17 -59 -38 -71
-51 -153 -92 -186 -92 -16 0 -36 9 -45 19 -10 11 -33 27 -52 36 -19 9 -34 20
-34 25 0 6 -6 10 -12 10 -7 0 -31 14 -52 30 -22 17 -45 30 -52 30 -7 0 -17 6
-21 13 -4 7 -48 32 -97 57 -125 64 -136 70 -180 102 -21 15 -43 28 -48 28 -4
0 -31 16 -59 35 -27 20 -61 40 -75 45 -13 5 -24 13 -24 18 0 4 -17 14 -37 22
-21 7 -42 18 -48 25 -5 6 -30 20 -55 30 -25 10 -49 23 -55 29 -5 6 -26 19 -45
29 -19 9 -57 30 -85 46 -27 16 -73 41 -100 55 -28 14 -71 45 -96 69 -42 40
-45 46 -41 86 2 24 -1 48 -7 54 -8 8 -11 211 -11 713 l0 703 26 20 c15 12 33
21 40 21 8 0 14 5 14 10 0 6 12 15 26 20 15 6 40 20 55 31 16 11 29 17 29 12
0 -4 4 -3 8 2 4 6 18 17 32 25 50 29 126 71 175 96 87 45 134 71 185 104 53
34 114 69 168 94 17 9 32 20 32 24 0 4 17 14 38 22 20 7 42 18 47 25 6 7 26
18 45 26 19 7 42 21 52 31 10 10 24 18 31 18 7 0 29 16 47 35 39 41 82 45 88
10z m3508 14 c6 -10 93 -69 102 -69 4 0 36 -20 72 -45 36 -25 70 -45 76 -45 6
0 23 -9 37 -20 14 -12 41 -26 59 -32 18 -6 47 -22 64 -35 17 -12 36 -23 42
-23 6 0 16 -8 21 -18 5 -10 28 -24 50 -32 23 -7 41 -17 41 -21 0 -4 19 -17 43
-29 23 -12 78 -41 122 -65 78 -43 163 -85 172 -85 2 0 28 -18 58 -40 30 -22
59 -40 65 -40 32 0 35 -51 38 -814 4 -841 9 -772 -65 -811 -21 -11 -41 -24
-45 -30 -4 -5 -8 -6 -8 -2 0 4 -19 -5 -43 -21 -23 -17 -58 -37 -77 -46 -19 -9
-57 -30 -85 -46 -27 -16 -72 -41 -100 -55 -75 -39 -110 -59 -113 -67 -2 -4
-22 -17 -45 -28 -23 -11 -60 -32 -82 -45 -22 -14 -56 -33 -75 -42 -19 -10 -38
-21 -41 -26 -3 -4 -21 -16 -40 -26 -76 -40 -130 -71 -154 -87 -37 -24 -82 -49
-132 -73 -24 -11 -43 -24 -43 -28 0 -8 -52 -34 -73 -37 -4 0 -24 -14 -44 -30
-49 -39 -85 -43 -119 -11 -15 14 -31 25 -36 25 -4 0 -27 14 -50 30 -22 17 -45
30 -50 30 -5 0 -29 13 -53 30 -24 16 -55 34 -69 40 -14 5 -26 14 -26 20 0 6
-4 8 -10 5 -5 -3 -10 -1 -10 4 0 6 -6 11 -14 11 -7 0 -25 9 -40 21 -14 11 -26
17 -26 12 0 -4 -4 -3 -8 2 -4 6 -18 16 -32 23 -14 7 -47 26 -75 42 -27 16 -66
37 -85 47 -19 9 -61 35 -92 56 -32 21 -58 35 -58 32 0 -3 -19 7 -42 23 -24 15
-70 41 -103 57 -33 15 -74 38 -92 51 -17 13 -49 30 -70 37 -34 11 -38 16 -38
46 0 28 6 38 30 52 17 10 36 18 44 18 8 1 28 11 45 24 17 13 63 38 101 57 39
19 75 40 80 46 6 6 31 19 58 29 26 10 47 22 47 26 0 5 15 16 33 24 51 25 100
53 106 62 3 4 24 17 46 28 22 11 43 24 46 28 3 5 9 8 12 8 4 0 24 10 44 22 21
12 41 21 46 19 4 -1 7 3 7 8 0 6 12 15 26 20 14 6 45 24 70 41 24 16 44 27 44
24 0 -3 19 7 43 22 23 16 58 37 77 47 59 30 113 61 157 89 24 15 47 27 52 27
5 0 11 7 15 15 3 8 11 15 19 15 7 0 23 10 35 23 21 22 23 37 34 338 14 374 14
841 0 1029 -5 74 -8 139 -5 143 6 10 83 6 89 -4z"></path>
<path d="M3340 4828 c-36 -19 -83 -46 -105 -61 -22 -15 -45 -27 -52 -27 -7 0
-13 -4 -13 -9 0 -9 -20 -21 -125 -76 -27 -14 -77 -41 -110 -60 -33 -19 -68
-38 -77 -41 -10 -4 -18 -10 -18 -15 0 -4 -15 -15 -32 -24 -18 -8 -53 -32 -77
-53 l-45 -39 -4 -94 c-2 -52 -8 -98 -13 -103 -5 -6 -9 -150 -9 -321 l0 -312
23 -21 c13 -12 26 -22 30 -22 4 0 32 -20 63 -45 30 -25 61 -45 70 -45 8 0 17
-7 20 -15 4 -8 10 -15 15 -15 5 0 28 -12 52 -27 23 -15 72 -42 110 -61 37 -19
67 -38 67 -42 0 -4 23 -16 51 -26 28 -11 54 -25 56 -31 3 -7 10 -13 17 -13 6
0 29 -14 50 -30 22 -17 44 -30 49 -30 6 0 19 -8 29 -17 22 -20 115 -24 126 -6
5 7 31 20 60 28 28 9 55 21 59 28 9 14 163 92 176 89 4 -1 7 2 7 8 0 5 15 17
33 25 53 25 91 49 100 63 4 6 13 12 19 12 6 0 35 16 64 35 29 19 55 35 58 35
4 0 25 14 48 30 22 17 47 30 54 30 8 0 16 17 20 40 4 22 11 43 15 46 13 8 12
771 -1 779 -5 3 -10 17 -10 30 0 33 -27 55 -126 105 -46 24 -84 46 -84 49 0 4
-12 12 -27 19 -16 7 -55 28 -88 47 -33 20 -75 42 -92 50 -18 9 -33 20 -33 25
0 6 -3 9 -7 9 -13 -3 -73 25 -73 33 0 4 -17 16 -37 27 -21 10 -58 29 -82 42
-71 37 -125 36 -201 -3z m169 -176 c13 -15 59 -45 102 -67 191 -97 215 -110
224 -122 6 -6 33 -21 61 -32 70 -27 143 -78 149 -104 3 -12 4 -150 1 -307 -3
-157 -5 -304 -5 -328 -1 -35 -5 -44 -23 -51 -13 -5 -38 -21 -57 -35 -19 -14
-38 -26 -42 -26 -5 0 -28 -13 -52 -30 -25 -16 -50 -30 -56 -30 -6 0 -11 -4
-11 -10 0 -5 -3 -9 -7 -8 -5 1 -28 -10 -52 -26 -24 -16 -63 -38 -85 -50 -23
-13 -71 -39 -108 -59 -45 -25 -80 -37 -106 -37 -37 0 -87 18 -101 37 -3 4 -22
16 -41 26 -19 9 -57 30 -85 46 -27 16 -79 44 -115 62 -36 19 -66 37 -68 41 -2
4 -32 21 -68 38 -35 18 -64 35 -64 40 0 5 -7 10 -16 12 -21 4 -22 9 -29 378
-6 273 -5 298 12 330 10 19 32 41 48 50 17 8 33 20 37 25 5 7 8 7 8 0 0 -6 3
-6 8 0 4 6 18 16 32 23 14 8 52 29 85 47 33 19 76 42 95 51 19 9 58 32 86 50
28 19 54 34 57 34 4 0 28 16 53 35 39 30 52 35 78 30 17 -4 42 -19 55 -33z"></path>
</g>
</svg>